HIERARCHY
ROOT Hips
{
  OFFSET 5.72205e-005 65.662 3.42586
  CHANNELS 6 Xposition Yposition Zposition Zrotation Xrotation Yrotation
  JOINT Chest
  {
    OFFSET 0 8.7983 -4.7612
    CHANNELS 6 Xposition Yposition Zposition Zrotation Xrotation Yrotation
    JOINT Chest2
    {
      OFFSET 0 8.0291 0.4195
      CHANNELS 6 Xposition Yposition Zposition Zrotation Xrotation Yrotation
      JOINT Chest3
      {
        OFFSET 0 9.9351 -2.2114
        CHANNELS 6 Xposition Yposition Zposition Zrotation Xrotation Yrotation
        JOINT Neck
        {
          OFFSET 0 22.3885 -0.4656
          CHANNELS 6 Xposition Yposition Zposition Zrotation Xrotation Yrotation
          JOINT Head
          {
            OFFSET -0.0001 12.643 3.4389
            CHANNELS 6 Xposition Yposition Zposition Zrotation Xrotation Yrotation
            End Site
            {
              OFFSET 0.0001 17.6655 0.5274
            }
          }
        }
        JOINT LeftCollar
        {
          OFFSET 2.2603 21.606 7.4023
          CHANNELS 6 Xposition Yposition Zposition Zrotation Xrotation Yrotation
          JOINT LeftShoulder
          {
            OFFSET 13.5163 -1.1332 -5.0146
            CHANNELS 6 Xposition Yposition Zposition Zrotation Xrotation Yrotation
            JOINT LeftElbow
            {
              OFFSET -0.0995 -28.05 -0.2431
              CHANNELS 6 Xposition Yposition Zposition Zrotation Xrotation Yrotation
              JOINT LeftWrist
              {
                OFFSET 0.0679 -23.3996 -0.1402
                CHANNELS 6 Xposition Yposition Zposition Zrotation Xrotation Yrotation
                JOINT LeftFinger1
                {
                  OFFSET 0.7932 -9.069 2.5189
                  CHANNELS 6 Xposition Yposition Zposition Zrotation Xrotation Yrotation
                  JOINT LeftFinger11
                  {
                    OFFSET -0.8272 -3.3923 0.5977
                    CHANNELS 6 Xposition Yposition Zposition Zrotation Xrotation Yrotation
                    JOINT LeftFinger12
                    {
                      OFFSET -0.5649 -2.3158 0.4082
                      CHANNELS 6 Xposition Yposition Zposition Zrotation Xrotation Yrotation
                      End Site
                      {
                        OFFSET -0.4919 -1.6479 0.2673
                      }
                    }
                  }
                }
                JOINT LeftFinger2
                {
                  OFFSET 0.9159 -9.2044 0.2193
                  CHANNELS 6 Xposition Yposition Zposition Zrotation Xrotation Yrotation
                  JOINT LeftFinger21
                  {
                    OFFSET 0.0117 -4.1944 -0.0248
                    CHANNELS 6 Xposition Yposition Zposition Zrotation Xrotation Yrotation
                    JOINT LeftFinger22
                    {
                      OFFSET 0.0071 -2.3249 -0.0142
                      CHANNELS 6 Xposition Yposition Zposition Zrotation Xrotation Yrotation
                      End Site
                      {
                        OFFSET -0.1475 -2.0882 0.0028
                      }
                    }
                  }
                }
                JOINT LeftFinger3
                {
                  OFFSET 0.6113 -8.7231 -2.0637
                  CHANNELS 6 Xposition Yposition Zposition Zrotation Xrotation Yrotation
                  JOINT LeftFinger31
                  {
                    OFFSET -0.1927 -3.8059 -0.2383
                    CHANNELS 6 Xposition Yposition Zposition Zrotation Xrotation Yrotation
                    JOINT LeftFinger32
                    {
                      OFFSET -0.1091 -2.1688 -0.1362
                      CHANNELS 6 Xposition Yposition Zposition Zrotation Xrotation Yrotation
                      End Site
                      {
                        OFFSET -0.2358 -1.9176 -0.0906
                      }
                    }
                  }
                }
                JOINT LeftFinger4
                {
                  OFFSET -0.6151 -8.0947 -3.5641
                  CHANNELS 6 Xposition Yposition Zposition Zrotation Xrotation Yrotation
                  JOINT LeftFinger41
                  {
                    OFFSET -0.4882 -2.341 -0.6462
                    CHANNELS 6 Xposition Yposition Zposition Zrotation Xrotation Yrotation
                    JOINT LeftFinger42
                    {
                      OFFSET -0.3575 -1.7167 -0.4742
                      CHANNELS 6 Xposition Yposition Zposition Zrotation Xrotation Yrotation
                      End Site
                      {
                        OFFSET -0.4187 -1.5237 -0.3496
                      }
                    }
                  }
                }
                JOINT LeftFinger0
                {
                  OFFSET -1.42 -1.8761 1.4223
                  CHANNELS 6 Xposition Yposition Zposition Zrotation Xrotation Yrotation
                  JOINT LeftFinger01
                  {
                    OFFSET -1.1471 -3.4929 2.6334
                    CHANNELS 6 Xposition Yposition Zposition Zrotation Xrotation Yrotation
                    JOINT LeftFinger02
                    {
                      OFFSET -0.823 -2.3 1.6571
                      CHANNELS 6 Xposition Yposition Zposition Zrotation Xrotation Yrotation
                      End Site
                      {
                        OFFSET -0.5822 -1.6914 1.1582
                      }
                    }
                  }
                }
              }
            }
          }
        }
        JOINT RightCollar
        {
          OFFSET -2.2603 21.606 7.4023
          CHANNELS 6 Xposition Yposition Zposition Zrotation Xrotation Yrotation
          JOINT RightShoulder
          {
            OFFSET -13.5187 -1.1334 -5.0155
            CHANNELS 6 Xposition Yposition Zposition Zrotation Xrotation Yrotation
            JOINT RightElbow
            {
              OFFSET 0.0994 -28.0499 -0.2431
              CHANNELS 6 Xposition Yposition Zposition Zrotation Xrotation Yrotation
              JOINT RightWrist
              {
                OFFSET -0.0679 -23.3996 -0.1402
                CHANNELS 6 Xposition Yposition Zposition Zrotation Xrotation Yrotation
                JOINT RightFinger1
                {
                  OFFSET -0.7932 -9.0691 2.5189
                  CHANNELS 6 Xposition Yposition Zposition Zrotation Xrotation Yrotation
                  JOINT RightFinger11
                  {
                    OFFSET 0.8272 -3.3923 0.5977
                    CHANNELS 6 Xposition Yposition Zposition Zrotation Xrotation Yrotation
                    JOINT RightFinger12
                    {
                      OFFSET 0.565 -2.3158 0.4082
                      CHANNELS 6 Xposition Yposition Zposition Zrotation Xrotation Yrotation
                      End Site
                      {
                        OFFSET 0.4919 -1.6479 0.2673
                      }
                    }
                  }
                }
                JOINT RightFinger2
                {
                  OFFSET -0.916 -9.2044 0.2193
                  CHANNELS 6 Xposition Yposition Zposition Zrotation Xrotation Yrotation
                  JOINT RightFinger21
                  {
                    OFFSET -0.0117 -4.1944 -0.0248
                    CHANNELS 6 Xposition Yposition Zposition Zrotation Xrotation Yrotation
                    JOINT RightFinger22
                    {
                      OFFSET -0.0071 -2.3249 -0.0142
                      CHANNELS 6 Xposition Yposition Zposition Zrotation Xrotation Yrotation
                      End Site
                      {
                        OFFSET 0.1475 -2.0882 0.0028
                      }
                    }
                  }
                }
                JOINT RightFinger3
                {
                  OFFSET -0.6113 -8.7231 -2.0637
                  CHANNELS 6 Xposition Yposition Zposition Zrotation Xrotation Yrotation
                  JOINT RightFinger31
                  {
                    OFFSET 0.1927 -3.8059 -0.2383
                    CHANNELS 6 Xposition Yposition Zposition Zrotation Xrotation Yrotation
                    JOINT RightFinger32
                    {
                      OFFSET 0.1091 -2.1688 -0.1362
                      CHANNELS 6 Xposition Yposition Zposition Zrotation Xrotation Yrotation
                      End Site
                      {
                        OFFSET 0.2358 -1.9176 -0.0906
                      }
                    }
                  }
                }
                JOINT RightFinger4
                {
                  OFFSET 0.6151 -8.0947 -3.564
                  CHANNELS 6 Xposition Yposition Zposition Zrotation Xrotation Yrotation
                  JOINT RightFinger41
                  {
                    OFFSET 0.4882 -2.341 -0.6462
                    CHANNELS 6 Xposition Yposition Zposition Zrotation Xrotation Yrotation
                    JOINT RightFinger42
                    {
                      OFFSET 0.3574 -1.7166 -0.4742
                      CHANNELS 6 Xposition Yposition Zposition Zrotation Xrotation Yrotation
                      End Site
                      {
                        OFFSET 0.4187 -1.5237 -0.3496
                      }
                    }
                  }
                }
                JOINT RightFinger0
                {
                  OFFSET 1.4199 -1.8761 1.4221
                  CHANNELS 6 Xposition Yposition Zposition Zrotation Xrotation Yrotation
                  JOINT RightFinger01
                  {
                    OFFSET 1.1472 -3.4929 2.6336
                    CHANNELS 6 Xposition Yposition Zposition Zrotation Xrotation Yrotation
                    JOINT RightFinger02
                    {
                      OFFSET 0.8229 -2.3 1.6571
                      CHANNELS 6 Xposition Yposition Zposition Zrotation Xrotation Yrotation
                      End Site
                      {
                        OFFSET 0.5822 -1.6914 1.1582
                      }
                    }
                  }
                }
              }
            }
          }
        }
      }
    }
  }
  JOINT RightHip
  {
    OFFSET -9.412 3.9771 -0.7758
    CHANNELS 6 Xposition Yposition Zposition Zrotation Xrotation Yrotation
    JOINT RightKnee
    {
      OFFSET -0.7531 -40.938 0
      CHANNELS 6 Xposition Yposition Zposition Zrotation Xrotation Yrotation
      JOINT RightAnkle
      {
        OFFSET 0 -40.1986 0
        CHANNELS 6 Xposition Yposition Zposition Zrotation Xrotation Yrotation
        JOINT RightToe
        {
          OFFSET 0 -4.4182 9.239
          CHANNELS 6 Xposition Yposition Zposition Zrotation Xrotation Yrotation
          End Site
          {
            OFFSET 0 0 6.1981
          }
        }
      }
    }
  }
  JOINT LeftHip
  {
    OFFSET 9.4119 3.9773 -0.7758
    CHANNELS 6 Xposition Yposition Zposition Zrotation Xrotation Yrotation
    JOINT LeftKnee
    {
      OFFSET 0.7532 -40.9383 0
      CHANNELS 6 Xposition Yposition Zposition Zrotation Xrotation Yrotation
      JOINT LeftAnkle
      {
        OFFSET 0 -40.1986 0
        CHANNELS 6 Xposition Yposition Zposition Zrotation Xrotation Yrotation
        JOINT LeftToe
        {
          OFFSET 0 -4.4182 9.239
          CHANNELS 6 Xposition Yposition Zposition Zrotation Xrotation Yrotation
          End Site
          {
            OFFSET 0 0 6.1981
          }
        }
      }
    }
  }
}
MOTION
Frames:	4
Frame Time:	0.0333333
5.72205e-005 65.662 3.42586 0 0 -0 0 8.7983 -4.7612 0 0 -0 0 8.0291 0.4195 0 0 -0 0 9.9351 -2.2114 0 0 -0 0 22.3885 -0.4656 0 0 -0 -0.0001 12.643 3.4389 0 0 -0 2.2603 21.606 7.4023 0 0 -12.5014 13.5163 -1.1332 -5.0146 88.1196 14.2451 10.6914 -0.0995 -28.05 -0.2431 -0.00160068 -0.00239207 0.000740045 0.0679 -23.3996 -0.1402 -8.4365e-005 7.00714e-005 -9.52055e-007 0.7932 -9.069 2.5189 9.93923e-017 -1.98785e-016 -1.59028e-015 -0.8272 -3.3923 0.5977 9.93923e-017 -5.96354e-016 -1.59028e-015 -0.5649 -2.3158 0.4082 -9.93923e-017 -5.96354e-016 -1.59028e-015 0.9159 -9.2044 0.2193 9.93923e-017 -1.98785e-016 -1.59028e-015 0.0117 -4.1944 -0.0248 -0.0128176 0.00232552 8.52707e-005 0.0071 -2.3249 -0.0142 9.93923e-017 5.96354e-016 -0 0.6113 -8.7231 -2.0637 9.93923e-017 -1.98785e-016 -1.59028e-015 -0.1927 -3.8059 -0.2383 -0.0160551 0.00299681 0.000857156 -0.1091 -2.1688 -0.1362 -2.48481e-016 0 3.18055e-015 -0.6151 -8.0947 -3.5641 9.93923e-017 -1.98785e-016 -1.59028e-015 -0.4882 -2.341 -0.6462 -0.0125865 0.0031206 0.00282719 -0.3575 -1.7167 -0.4742 0 1.98785e-016 -0 -1.42 -1.8761 1.4223 9.93923e-017 -1.98785e-016 -1.59028e-015 -1.1471 -3.4929 2.6334 9.93923e-017 -5.96354e-016 -1.59028e-015 -0.823 -2.3 1.6571 -9.93923e-017 -5.96354e-016 -1.59028e-015 -2.2603 21.606 7.4023 -0.865644 0.16582 7.03859 -13.5187 -1.1334 -5.0155 -88.0329 10.2057 -10.5567 0.0994 -28.0499 -0.2431 0.0015593 -0.00248883 -0.000788628 -0.0679 -23.3996 -0.1402 7.87605e-005 4.10553e-005 1.24965e-005 -0.7932 -9.0691 2.5189 -3.97569e-016 -7.95139e-016 3.18055e-015 0.8272 -3.3923 0.5977 -1.98785e-016 -3.97569e-016 3.18055e-015 0.565 -2.3158 0.4082 -1.98785e-016 0 3.18055e-015 -0.916 -9.2044 0.2193 -3.97569e-016 -7.95139e-016 3.18055e-015 -0.0117 -4.1944 -0.0248 0.0129473 0.00231697 -8.70038e-005 -0.0071 -2.3249 -0.0142 9.93923e-017 -7.95139e-016 1.59028e-015 -0.6113 -8.7231 -2.0637 -3.97569e-016 -7.95139e-016 3.18055e-015 0.1927 -3.8059 -0.2383 0.0163314 0.00303369 -0.000872333 0.1091 -2.1688 -0.1362 3.97569e-016 7.95139e-016 -3.18055e-015 0.6151 -8.0947 -3.564 -3.97569e-016 -7.95139e-016 3.18055e-015 0.4882 -2.341 -0.6462 0.0145763 0.00367772 -0.00326275 0.3574 -1.7166 -0.4742 9.93923e-017 -3.97569e-016 -0 1.4199 -1.8761 1.4221 -3.97569e-016 -7.95139e-016 3.18055e-015 1.1472 -3.4929 2.6336 -1.98785e-016 -3.97569e-016 3.18055e-015 0.8229 -2.3 1.6571 -1.98785e-016 0 3.18055e-015 -9.412 3.9771 -0.7758 3.42482 1.32465 -0.0626183 -0.7531 -40.938 0 0.000117508 0.717283 0.000978199 0 -40.1986 0 -3.4257 -2.04197 -0.0604716 8.88178e-016 -4.4182 9.239 6.47761e-025 0 -0 9.4119 3.9773 -0.7758 -3.42483 1.34017 0.0627307 0.7532 -40.9383 -2.22045e-016 -0.000193936 0.682302 -0.0013703 -8.88179e-016 -40.1986 0 3.42574 -2.02253 0.0595886 -8.88178e-016 -4.4182 9.239 -8.45714e-024 0 -7.40531e-025 
20.211 43.0701 -34.7684 -0.00254098 17.9983 5.99931 0 8.7983 -4.7612 -5.77001 13.5232 4.35812 0 8.0291 0.4195 -13.1661 26.4669 10.5799 3.55271e-015 9.9351 -2.2114 -13.166 26.4668 10.5799 -7.10543e-015 22.3885 -0.4656 -0.0019803 -17.0018 -16.0015 -0.0001 12.643 3.4389 -15.0752 -30.1213 -25.7002 2.2603 21.606 7.4023 8.99202 -19.3504 -66.4149 13.5163 -1.1332 -5.0146 79.9657 -6.96303 14.1063 -0.0995 -28.05 -0.2431 -10.0091 -41.5811 16.4364 0.0679 -23.3996 -0.1402 -55.4095 3.06616 35.8626 0.7932 -9.069 2.5189 -6.20839e-006 1.18258e-006 7.15787e-007 -0.8272 -3.3923 0.5977 -1.37621e-005 3.57941e-008 -4.07005e-007 -0.5649 -2.3158 0.4082 -9.93923e-016 0 1.59028e-015 0.9159 -9.2044 0.2193 -6.20839e-006 1.18258e-006 7.15787e-007 0.0117 -4.1944 -0.0248 -0.0128053 0.00231998 8.48756e-005 0.0071 -2.3249 -0.0142 4.37326e-015 0 1.19271e-015 0.6113 -8.7231 -2.0637 -6.20839e-006 1.18258e-006 7.15787e-007 -0.1927 -3.8059 -0.2383 -0.016067 0.00300081 0.000858471 -0.1091 -2.1688 -0.1362 -1.68379e-006 1.39593e-007 -1.68103e-007 -0.6151 -8.0947 -3.5641 -6.20839e-006 1.18258e-006 7.15787e-007 -0.4882 -2.341 -0.6462 -0.012586 0.00311775 0.00282549 -0.3575 -1.7167 -0.4742 4.96962e-015 0 1.19271e-015 -1.42 -1.8761 1.4223 -6.20839e-006 1.18258e-006 7.15787e-007 -1.1471 -3.4929 2.6334 -1.37621e-005 3.57941e-008 -4.07005e-007 -0.823 -2.3 1.6571 -9.93923e-016 0 1.59028e-015 -2.2603 21.606 7.4023 -5.62656 0.820305 -0.392729 -13.5187 -1.1334 -5.0155 -96.2444 -39.6061 -57.009 0.0994 -28.0499 -0.2431 -33.7274 -54.2434 -17.7059 -0.0679 -23.3996 -0.1402 6.87379 1.25173 0.312681 -0.7932 -9.0691 2.5189 4.29241e-006 5.80523e-006 -1.96339e-006 0.8272 -3.3923 0.5977 -9.32426e-006 -5.11476e-006 2.39663e-006 0.565 -2.3158 0.4082 -9.54166e-015 3.18055e-015 -1.27222e-014 -0.916 -9.2044 0.2193 4.29241e-006 5.80523e-006 -1.96339e-006 -0.0117 -4.1944 -0.0248 0.0129579 0.00231491 -8.5538e-005 -0.0071 -2.3249 -0.0142 -3.18055e-015 -3.18055e-015 1.59028e-015 -0.6113 -8.7231 -2.0637 4.29241e-006 5.80523e-006 -1.96339e-006 0.1927 -3.8059 -0.2383 0.0162947 0.00302156 -0.000861028 0.1091 -2.1688 -0.1362 -8.29497e-006 -1.64253e-006 -2.07583e-006 0.6151 -8.0947 -3.564 4.29241e-006 5.80523e-006 -1.96339e-006 0.4882 -2.341 -0.6462 0.0145366 0.00366655 -0.00325899 0.3574 -1.7166 -0.4742 -2.81416e-006 -3.12846e-006 5.0236e-006 1.4199 -1.8761 1.4221 4.29241e-006 5.80523e-006 -1.96339e-006 1.1472 -3.4929 2.6336 -9.32426e-006 -5.11476e-006 2.39663e-006 0.8229 -2.3 1.6571 -9.54166e-015 3.18055e-015 -1.27222e-014 -9.412 3.9771 -0.7758 -30.803 -50.8652 -35.8313 -0.7531 -40.938 1.77636e-015 -175.955 31.2149 172.71 1.77636e-015 -40.1986 -1.77636e-015 4.55426 38.2228 -8.77722 0 -4.4182 9.239 -1.82083e-006 -3.71955e-008 1.12057e-007 9.4119 3.9773 -0.7758 43.1779 -44.6046 45.4423 0.7532 -40.9383 -3.55271e-015 176.256 30.5577 -173.051 7.10543e-015 -40.1986 0 5.05383 43.6405 9.95562 7.10543e-015 -4.4182 9.239 2.56897e-007 1.64313e-008 7.918e-007 
20.211 43.0701 -34.7684 -0.00254062 17.9983 5.99931 3.55271e-015 8.7983 -4.7612 -5.76844 13.5975 4.37929 0 8.0291 0.4195 -13.1819 26.6121 10.6383 0 9.9351 -2.2114 -13.1818 26.612 10.6382 0 22.3885 -0.4656 -0.00196876 -17.0018 -16.0015 -0.0001 12.643 3.4389 -15.0752 -30.1213 -25.7002 2.2603 21.606 7.4023 9.01626 -19.7723 -66.0712 13.5163 -1.1332 -5.0146 79.9657 -6.96303 14.1063 -0.0995 -28.05 -0.2431 -10.4407 -42.5709 16.0986 0.0679 -23.3996 -0.1402 -55.0617 3.32364 36.3207 0.7932 -9.069 2.5189 1.94393e-006 1.51965e-006 -1.08779e-006 -0.8272 -3.3923 0.5977 -8.68377e-006 1.2671e-006 9.55565e-008 -0.5649 -2.3158 0.4082 6.73984e-006 1.38944e-006 9.92229e-007 0.9159 -9.2044 0.2193 1.94393e-006 1.51965e-006 -1.08779e-006 0.0117 -4.1944 -0.0248 -0.0128178 0.00232541 8.4e-005 0.0071 -2.3249 -0.0142 8.45444e-008 1.64804e-006 -4.1769e-007 0.6113 -8.7231 -2.0637 1.94393e-006 1.51965e-006 -1.08779e-006 -0.1927 -3.8059 -0.2383 -0.0160531 0.0029941 0.000856662 -0.1091 -2.1688 -0.1362 -8.45506e-008 8.42687e-007 4.17689e-007 -0.6151 -8.0947 -3.5641 1.94393e-006 1.51965e-006 -1.08779e-006 -0.4882 -2.341 -0.6462 -0.0125873 0.00312082 0.00282169 -0.3575 -1.7167 -0.4742 1.79299e-005 -1.13702e-006 1.1884e-006 -1.42 -1.8761 1.4223 1.94393e-006 1.51965e-006 -1.08779e-006 -1.1471 -3.4929 2.6334 -8.68377e-006 1.2671e-006 9.55565e-008 -0.823 -2.3 1.6571 6.73984e-006 1.38944e-006 9.92229e-007 -2.2603 21.606 7.4023 -6.03037 0.566146 -0.8515 -13.5187 -1.1334 -5.0155 -96.8596 -39.6438 -57.3563 0.0994 -28.0499 -0.2431 -32.6296 -54.5404 -16.8851 -0.0679 -23.3996 -0.1402 7.03874 1.64403 0.235488 -0.7932 -9.0691 2.5189 1.20798e-005 1.68122e-007 9.67493e-006 0.8272 -3.3923 0.5977 -1.20798e-005 -1.6812e-007 -9.67493e-006 0.565 -2.3158 0.4082 3.18055e-015 -9.54166e-015 1.59028e-015 -0.916 -9.2044 0.2193 1.20798e-005 1.68122e-007 9.67493e-006 -0.0117 -4.1944 -0.0248 0.0129217 0.00231435 -0.000104089 -0.0071 -2.3249 -0.0142 6.36111e-015 -1.27222e-014 -0 -0.6113 -8.7231 -2.0637 1.20798e-005 1.68122e-007 9.67493e-006 0.1927 -3.8059 -0.2383 0.0163177 0.00302585 -0.000883971 0.1091 -2.1688 -0.1362 -5.29669e-031 -6.36111e-015 -4.77083e-015 0.6151 -8.0947 -3.564 1.20798e-005 1.68122e-007 9.67493e-006 0.4882 -2.341 -0.6462 0.014569 0.00367363 -0.00327642 0.3574 -1.7166 -0.4742 -6.36111e-015 6.36111e-015 1.59028e-015 1.4199 -1.8761 1.4221 1.20798e-005 1.68122e-007 9.67493e-006 1.1472 -3.4929 2.6336 -1.20798e-005 -1.6812e-007 -9.67493e-006 0.8229 -2.3 1.6571 3.18055e-015 -9.54166e-015 1.59028e-015 -9.412 3.9771 -0.7758 -30.8026 -50.8653 -35.831 -0.7531 -40.938 -4.44089e-015 -175.955 31.2149 172.71 8.88179e-016 -40.1986 1.77636e-015 4.55427 38.2227 -8.7772 0 -4.4182 9.239 2.09138e-007 9.1875e-009 3.69473e-007 9.4119 3.9773 -0.7758 43.1755 -44.6064 45.4407 0.7532 -40.9383 1.77636e-015 176.259 30.5576 -173.051 0 -40.1986 1.77636e-015 5.05384 43.6405 9.95562 -7.10543e-015 -4.4182 9.239 5.13795e-007 3.93816e-007 1.5836e-006 
20.211 43.0701 -34.7684 -0.00254121 17.9983 5.99931 0 8.7983 -4.7612 -5.76685 13.6719 4.40045 3.55271e-015 8.0291 0.4195 -13.1978 26.7573 10.6967 0 9.9351 -2.2114 -13.1977 26.7572 10.6966 7.10543e-015 22.3885 -0.4656 -0.00197003 -17.0018 -16.0015 -0.0001 12.643 3.4389 -15.0752 -30.1213 -25.7002 2.2603 21.606 7.4023 9.04323 -20.194 -65.7263 13.5163 -1.1332 -5.0146 79.9657 -6.96307 14.1063 -0.0995 -28.05 -0.2431 -10.8879 -43.56 15.7447 0.0679 -23.3996 -0.1402 -54.7156 3.58403 36.7775 0.7932 -9.069 2.5189 1.68463e-007 7.97886e-007 -8.35455e-007 -0.8272 -3.3923 0.5977 8.84592e-015 2.49543e-006 7.95139e-016 -0.5649 -2.3158 0.4082 1.68463e-007 6.23853e-008 -8.35455e-007 0.9159 -9.2044 0.2193 1.68463e-007 7.97886e-007 -8.35455e-007 0.0117 -4.1944 -0.0248 -0.0128369 0.0023276 8.47101e-005 0.0071 -2.3249 -0.0142 4.16259e-006 -1.02264e-006 7.8899e-007 0.6113 -8.7231 -2.0637 1.68463e-007 7.97886e-007 -8.35455e-007 -0.1927 -3.8059 -0.2383 -0.0160466 0.00299454 0.000855359 -0.1091 -2.1688 -0.1362 8.42602e-008 8.42848e-007 -4.17724e-007 -0.6151 -8.0947 -3.5641 1.68463e-007 7.97886e-007 -8.35455e-007 -0.4882 -2.341 -0.6462 -0.0125668 0.0031182 0.00282443 -0.3575 -1.7167 -0.4742 2.52779e-007 1.6778e-006 -1.25317e-006 -1.42 -1.8761 1.4223 1.68463e-007 7.97886e-007 -8.35455e-007 -1.1471 -3.4929 2.6334 8.84592e-015 2.49543e-006 7.95139e-016 -0.823 -2.3 1.6571 1.68463e-007 6.23853e-008 -8.35455e-007 -2.2603 21.606 7.4023 -6.43642 0.315187 -1.31226 -13.5187 -1.1334 -5.0155 -97.4757 -39.6785 -57.7044 0.0994 -28.0499 -0.2431 -31.5158 -54.8282 -16.0481 -0.0679 -23.3996 -0.1402 7.20426 2.03619 0.157117 -0.7932 -9.0691 2.5189 -3.35564e-006 3.63091e-006 -2.50912e-006 0.8272 -3.3923 0.5977 6.36111e-015 0 1.59028e-015 0.565 -2.3158 0.4082 3.35564e-006 -2.20308e-006 2.50912e-006 -0.916 -9.2044 0.2193 -3.35564e-006 3.63091e-006 -2.50912e-006 -0.0117 -4.1944 -0.0248 0.0129415 0.00231591 -8.79935e-005 -0.0071 -2.3249 -0.0142 3.18055e-015 -3.18055e-015 1.59028e-015 -0.6113 -8.7231 -2.0637 -3.35564e-006 3.63091e-006 -2.50912e-006 0.1927 -3.8059 -0.2383 0.0163231 0.00304542 -0.000868569 0.1091 -2.1688 -0.1362 -5.20821e-006 -3.43654e-006 -1.98131e-006 0.6151 -8.0947 -3.564 -3.35564e-006 3.63091e-006 -2.50912e-006 0.4882 -2.341 -0.6462 0.0145772 0.00368283 -0.00325871 0.3574 -1.7166 -0.4742 -6.36111e-015 9.54166e-015 -0 1.4199 -1.8761 1.4221 -3.35564e-006 3.63091e-006 -2.50912e-006 1.1472 -3.4929 2.6336 6.36111e-015 0 1.59028e-015 0.8229 -2.3 1.6571 3.35564e-006 -2.20308e-006 2.50912e-006 -9.412 3.9771 -0.7758 -30.8031 -50.8651 -35.8314 -0.7531 -40.938 -4.44089e-015 -175.954 31.215 172.71 -1.33227e-015 -40.1986 5.32907e-015 4.55425 38.2228 -8.77721 -2.66454e-015 -4.4182 9.239 -7.7514e-007 4.08786e-007 1.95942e-006 9.4119 3.9773 -0.7758 43.1755 -44.6064 45.4407 0.7532 -40.9383 -3.55271e-015 176.259 30.5576 -173.051 0 -40.1986 -1.77636e-015 5.05384 43.6405 9.95562 0 -4.4182 9.239 2.20268e-006 2.22858e-006 1.74659e-006 
